<?xml version="1.0" standalone="no"?>
<!DOCTYPE svg PUBLIC "-//W3C//DTD SVG 20010904//EN"
 "http://www.w3.org/TR/2001/REC-SVG-20010904/DTD/svg10.dtd">
<svg version="1.0" xmlns="http://www.w3.org/2000/svg"
 width="291.000000pt" height="298.000000pt" viewBox="0 0 291.000000 298.000000"
 preserveAspectRatio="xMidYMid meet">

<g transform="translate(0.000000,298.000000) scale(0.100000,-0.100000)"
fill="#000000" stroke="none">
<path d="M1325 2950 c-165 -33 -310 -122 -360 -221 -90 -177 66 -401 390 -559
250 -122 384 -156 620 -154 126 1 174 5 225 20 l65 19 7 55 c21 163 -52 391
-176 546 -119 148 -284 249 -475 290 -71 15 -230 17 -296 4z m225 -533 c187
-62 279 -87 395 -108 96 -17 97 -17 43 -18 -135 -2 -326 39 -492 105 -97 40
-248 123 -261 145 -3 4 36 -12 87 -36 51 -24 154 -64 228 -88z"/>
<path d="M624 2702 c-245 -178 -454 -483 -537 -782 -43 -153 -57 -260 -57
-424 0 -237 41 -433 130 -622 57 -122 166 -284 254 -379 62 -67 65 -68 56 -35
-12 44 -13 116 -1 157 8 28 4 38 -51 114 -105 147 -196 362 -235 556 -27 135
-25 423 5 565 27 132 80 284 139 406 58 119 196 317 281 405 37 37 64 67 61
67 -3 0 -24 -13 -45 -28z"/>
<path d="M831 2454 c-22 -88 -24 -166 -6 -272 10 -59 14 -115 10 -134 -9 -40
-60 -113 -115 -162 -22 -20 -40 -40 -40 -45 0 -6 23 -22 50 -38 58 -32 68 -54
45 -89 -16 -25 -16 -25 14 -37 34 -13 35 -15 22 -50 -9 -22 -6 -27 20 -37 34
-14 44 -44 34 -96 -18 -98 76 -115 244 -44 95 40 124 44 165 25 26 -13 43 -32
63 -74 26 -53 28 -64 27 -181 -1 -102 -5 -135 -22 -180 -26 -66 -69 -120 -125
-158 -83 -56 -119 -65 -302 -71 -167 -6 -172 -7 -237 -39 -109 -53 -150 -126
-150 -262 0 -125 10 -143 128 -222 98 -66 263 -151 317 -164 24 -5 29 -3 34
16 11 42 65 134 115 197 124 157 329 302 671 474 l230 116 -44 7 c-176 28
-289 201 -289 443 l0 89 -34 12 c-62 23 -182 110 -242 175 -73 79 -134 193
-168 312 -35 122 -32 145 7 55 97 -221 249 -384 442 -476 116 -55 205 -76 325
-75 298 1 571 185 667 450 l24 66 -6 -51 c-4 -35 -1 -71 11 -115 15 -52 18
-104 19 -274 0 -197 -2 -216 -27 -315 -30 -114 -72 -229 -113 -310 -26 -51
-26 -53 -11 -111 11 -45 12 -74 5 -125 -5 -36 -12 -71 -16 -78 -24 -43 35 36
84 114 83 131 136 254 172 395 68 270 68 488 1 757 -37 147 -86 262 -178 415
-70 117 -123 187 -84 112 26 -52 23 -162 -7 -219 -71 -134 -254 -239 -473
-271 -98 -14 -281 -7 -388 16 -259 55 -529 186 -684 334 -52 49 -143 179 -152
218 -9 35 -20 28 -33 -23z"/>
<path d="M2128 891 c-47 -17 -175 -74 -285 -129 -405 -201 -634 -376 -730
-559 -47 -88 -52 -109 -25 -117 98 -29 200 -41 357 -40 147 0 185 4 280 26 61
15 139 37 174 50 l64 23 87 167 c48 93 89 171 93 174 20 20 -26 -174 -58 -243
-13 -29 -22 -53 -19 -53 14 0 100 50 189 110 58 40 140 108 195 163 85 87 96
101 102 143 16 113 -31 226 -116 279 -43 26 -60 30 -135 33 -74 2 -98 -2 -173
-27z"/>
</g>
</svg>
