<?xml version="1.0" standalone="no"?>
<!DOCTYPE svg PUBLIC "-//W3C//DTD SVG 20010904//EN"
 "http://www.w3.org/TR/2001/REC-SVG-20010904/DTD/svg10.dtd">
<svg version="1.0" xmlns="http://www.w3.org/2000/svg"
 width="565.000000pt" height="298.000000pt" viewBox="0 0 565.000000 298.000000"
 preserveAspectRatio="xMidYMid meet">

<g transform="translate(0.000000,298.000000) scale(0.100000,-0.100000)"
fill="#000000" stroke="none">
<path d="M1305 2946 c-168 -39 -309 -132 -351 -232 -8 -19 -14 -60 -14 -92 0
-93 48 -179 160 -285 76 -73 108 -95 222 -152 144 -74 280 -124 410 -152 119
-26 388 -24 473 4 l60 19 8 55 c5 31 3 88 -3 136 -27 204 -127 391 -284 526
-64 55 -223 138 -311 162 -83 23 -292 29 -370 11z m13 -440 c136 -67 436 -163
617 -196 l110 -20 -105 5 c-197 9 -454 87 -617 187 -46 28 -83 52 -83 54 0 8
12 3 78 -30z"/>
<path d="M624 2702 c-188 -137 -338 -322 -454 -557 -52 -106 -101 -265 -125
-404 -18 -98 -20 -353 -5 -468 15 -105 71 -300 115 -397 48 -106 171 -288 254
-377 l68 -73 -11 62 c-7 43 -7 78 0 113 l11 50 -59 82 c-103 142 -197 364
-235 556 -24 121 -24 412 0 536 35 175 107 376 182 505 67 115 176 263 249
338 39 39 68 72 66 72 -3 0 -28 -17 -56 -38z"/>
<path d="M831 2454 c-23 -89 -24 -169 -6 -279 16 -101 16 -109 0 -152 -11 -28
-42 -71 -81 -110 -35 -36 -64 -69 -64 -73 0 -5 21 -21 48 -36 67 -39 77 -58
45 -90 -16 -15 -16 -17 2 -30 10 -8 25 -14 33 -14 14 0 13 -11 -2 -50 -3 -10
6 -22 27 -35 30 -20 32 -24 32 -82 0 -81 15 -98 89 -96 37 1 81 13 142 39 147
61 199 49 247 -56 31 -66 29 -271 -2 -348 -39 -97 -110 -166 -211 -207 -34
-13 -86 -19 -220 -24 -175 -7 -175 -7 -238 -41 -106 -57 -145 -126 -145 -260
0 -122 12 -144 120 -217 97 -66 270 -156 319 -167 31 -7 32 -6 66 66 19 40 56
101 82 134 48 65 154 169 210 207 187 128 296 192 480 284 l217 107 -56 13
c-71 16 -106 35 -149 79 -79 81 -126 216 -126 361 l0 90 -41 16 c-64 25 -176
106 -235 170 -68 73 -136 198 -168 312 -33 112 -33 148 -1 70 32 -78 117 -217
172 -282 99 -116 279 -229 428 -268 88 -24 251 -22 350 4 224 58 408 215 486
414 l27 71 -1 -60 c-1 -32 6 -99 16 -148 21 -112 23 -331 2 -449 -20 -112 -56
-228 -112 -354 -40 -92 -44 -106 -34 -134 13 -38 14 -139 2 -191 -5 -21 -7
-38 -5 -38 2 0 33 46 70 102 227 347 291 771 180 1190 -39 149 -114 313 -197
435 -16 23 -29 46 -29 51 0 4 -12 19 -26 33 l-27 24 19 -35 c13 -24 18 -56 18
-105 0 -88 -24 -137 -105 -216 -64 -64 -144 -105 -277 -146 -78 -23 -104 -26
-247 -27 -174 -1 -240 9 -422 64 -179 55 -396 177 -522 294 -49 46 -135 171
-145 210 -10 39 -22 31 -35 -20z"/>
<path d="M3455 1690 c-96 -24 -172 -86 -215 -174 -76 -154 -40 -327 92 -441
62 -53 102 -68 188 -69 66 -1 82 3 129 29 65 36 100 80 117 147 16 60 4 130
-30 180 l-22 33 -97 3 -97 3 0 -80 0 -80 33 -3 c20 -2 32 -8 32 -18 0 -11 -11
-14 -45 -13 -52 3 -88 26 -112 74 -34 66 -18 132 44 184 30 26 37 27 105 23
l73 -5 0 97 0 98 -44 11 c-50 12 -106 13 -151 1z"/>
<path d="M3945 1661 c-54 -25 -95 -70 -106 -117 -12 -55 -11 -341 2 -389 14
-50 72 -107 126 -123 22 -7 88 -12 147 -12 l106 0 0 100 0 99 -92 3 c-85 3
-93 5 -93 23 0 18 8 20 85 25 l85 5 0 75 0 75 -75 3 c-73 3 -93 12 -83 39 4 9
28 13 89 13 l84 0 0 100 0 100 -117 0 c-93 0 -126 -4 -158 -19z"/>
<path d="M4415 1661 c-46 -21 -79 -54 -94 -94 -7 -16 -11 -107 -11 -216 0
-177 1 -190 23 -232 18 -33 37 -51 76 -71 49 -26 62 -28 167 -28 l114 0 0 100
0 100 -91 0 c-88 0 -90 1 -87 23 3 20 9 22 86 25 l82 3 0 79 0 79 -77 3 c-70
3 -78 5 -78 23 0 18 8 20 83 23 l82 3 0 99 0 100 -117 0 c-93 0 -126 -4 -158
-19z"/>
<path d="M4780 1452 c0 -264 8 -308 68 -371 42 -44 90 -61 170 -61 l52 0 0
100 0 100 -28 0 c-50 0 -52 7 -52 242 l0 218 -105 0 -105 0 0 -228z"/>
<path d="M5038 1662 c4 -9 44 -77 90 -149 l82 -132 0 -181 0 -181 103 3 102 3
-4 171 -3 172 38 68 c21 38 62 106 91 152 29 45 53 85 53 87 0 3 -44 5 -98 5
l-98 0 -43 -65 -43 -65 -24 35 c-13 20 -31 49 -39 65 l-16 30 -99 0 c-91 0
-99 -1 -92 -18z"/>
<path d="M2130 891 c-124 -42 -455 -207 -605 -302 -134 -85 -278 -199 -337
-268 -37 -44 -118 -190 -118 -214 0 -36 241 -72 425 -63 153 7 236 22 370 68
l99 33 86 167 c48 92 89 170 92 173 16 16 -24 -162 -50 -223 -17 -40 -28 -72
-26 -72 14 0 102 51 193 112 62 42 140 107 196 164 85 86 93 97 99 142 15 115
-33 225 -124 280 -49 29 -61 32 -135 32 -62 0 -100 -7 -165 -29z"/>
</g>
</svg>
